<svg width="95" height="95" viewBox="0 0 115 115" fill="none" xmlns="http://www.w3.org/2000/svg">
<path d="M60.95 51.75C58.65 51.175 56.35 50.025 54.625 48.3C52.9 47.725 52.325 46 52.325 44.85C52.325 43.7 52.9 41.975 54.05 41.4C55.775 40.25 57.5 39.1 59.225 39.675C62.675 39.675 65.55 41.4 67.275 43.7L72.45 36.8C70.725 35.075 69 33.925 67.275 32.775C65.55 31.625 63.25 31.05 60.95 31.05V23H54.05V31.05C51.175 31.625 48.3 33.35 46 35.65C43.7 38.525 41.975 41.975 42.55 45.425C42.55 48.875 43.7 52.325 46 54.625C48.875 57.5 52.9 59.225 56.35 60.95C58.075 61.525 60.375 62.675 62.1 63.825C63.25 64.975 63.825 66.7 63.825 68.425C63.825 70.15 63.25 71.875 62.1 73.6C60.375 75.325 58.075 75.9 56.35 75.9C54.05 75.9 51.175 75.325 49.45 73.6C47.725 72.45 46 70.725 44.85 69L39.1 75.325C40.825 77.625 42.55 79.35 44.85 81.075C47.725 82.8 51.175 84.525 54.625 84.525V92H60.95V83.375C64.4 82.8 67.275 81.075 69.575 78.775C72.45 75.9 74.175 71.3 74.175 67.275C74.175 63.825 73.025 59.8 70.15 57.5C67.275 54.625 64.4 52.9 60.95 51.75ZM57.5 11.5C32.2 11.5 11.5 32.2 11.5 57.5C11.5 82.8 32.2 103.5 57.5 103.5C82.8 103.5 103.5 82.8 103.5 57.5C103.5 32.2 82.8 11.5 57.5 11.5ZM57.5 97.175C35.65 97.175 17.825 79.35 17.825 57.5C17.825 35.65 35.65 17.825 57.5 17.825C79.35 17.825 97.175 35.65 97.175 57.5C97.175 79.35 79.35 97.175 57.5 97.175Z" fill="#134478"/>
</svg>
