<svg width="90" height="90" viewBox="0 0 110 110" fill="none" xmlns="http://www.w3.org/2000/svg">
<path d="M89.375 13.75H79.0625V10.3125C79.0625 9.40082 78.7003 8.52648 78.0557 7.88182C77.411 7.23716 76.5367 6.875 75.625 6.875C74.7133 6.875 73.839 7.23716 73.1943 7.88182C72.5497 8.52648 72.1875 9.40082 72.1875 10.3125V13.75H37.8125V10.3125C37.8125 9.40082 37.4503 8.52648 36.8057 7.88182C36.161 7.23716 35.2867 6.875 34.375 6.875C33.4633 6.875 32.589 7.23716 31.9443 7.88182C31.2997 8.52648 30.9375 9.40082 30.9375 10.3125V13.75H20.625C18.8016 13.75 17.053 14.4743 15.7636 15.7636C14.4743 17.053 13.75 18.8016 13.75 20.625V89.375C13.75 91.1984 14.4743 92.947 15.7636 94.2364C17.053 95.5257 18.8016 96.25 20.625 96.25H89.375C91.1984 96.25 92.947 95.5257 94.2364 94.2364C95.5257 92.947 96.25 91.1984 96.25 89.375V20.625C96.25 18.8016 95.5257 17.053 94.2364 15.7636C92.947 14.4743 91.1984 13.75 89.375 13.75ZM30.9375 20.625V24.0625C30.9375 24.9742 31.2997 25.8485 31.9443 26.4932C32.589 27.1378 33.4633 27.5 34.375 27.5C35.2867 27.5 36.161 27.1378 36.8057 26.4932C37.4503 25.8485 37.8125 24.9742 37.8125 24.0625V20.625H72.1875V24.0625C72.1875 24.9742 72.5497 25.8485 73.1943 26.4932C73.839 27.1378 74.7133 27.5 75.625 27.5C76.5367 27.5 77.411 27.1378 78.0557 26.4932C78.7003 25.8485 79.0625 24.9742 79.0625 24.0625V20.625H89.375V34.375H20.625V20.625H30.9375ZM89.375 89.375H20.625V41.25H89.375V89.375ZM72.9609 52.6367C73.587 53.2981 73.925 54.1808 73.9009 55.0911C73.8767 56.0015 73.4923 56.865 72.832 57.4922L52.7656 76.3984C52.4536 76.7042 52.0841 76.9452 51.6785 77.1074C51.2729 77.2697 50.8392 77.35 50.4023 77.3438C49.5218 77.3471 48.6744 77.0081 48.0391 76.3984L37.168 66.0859C36.8188 65.7813 36.5348 65.4092 36.3331 64.9919C36.1314 64.5747 36.0161 64.121 35.9942 63.6581C35.9723 63.1952 36.0442 62.7327 36.2056 62.2983C36.367 61.8639 36.6146 61.4666 36.9335 61.1304C37.2524 60.7941 37.636 60.5258 38.0612 60.3415C38.4864 60.1573 38.9445 60.0609 39.4079 60.0583C39.8713 60.0556 40.3305 60.1466 40.7578 60.3259C41.1851 60.5052 41.5718 60.769 41.8945 61.1016L50.4023 69.1797L68.1055 52.5078C68.4301 52.1925 68.8146 51.9454 69.2361 51.7808C69.6577 51.6163 70.108 51.5378 70.5604 51.5498C71.0127 51.5618 71.4582 51.6641 71.8704 51.8508C72.2827 52.0374 72.6535 52.3047 72.9609 52.6367Z" fill="#134478"/>
</svg>
