<svg width="80" height="80" viewBox="0 0 100 100" fill="none" xmlns="http://www.w3.org/2000/svg">
<g clip-path="url(#clip0_82_564)">
<path d="M50 0C77.615 0 100 22.385 100 50C100 77.615 77.615 100 50 100C22.385 100 0 77.615 0 50C0 22.385 22.385 0 50 0ZM50 6.975C38.5891 6.975 27.6455 11.508 19.5767 19.5767C11.508 27.6455 6.975 38.5891 6.975 50C6.975 61.4109 11.508 72.3545 19.5767 80.4233C27.6455 88.492 38.5891 93.025 50 93.025C61.4109 93.025 72.3545 88.492 80.4233 80.4233C88.492 72.3545 93.025 61.4109 93.025 50C93.025 38.5891 88.492 27.6455 80.4233 19.5767C72.3545 11.508 61.4109 6.975 50 6.975ZM45.35 27.905C47.275 27.905 48.835 29.47 48.835 31.395V55.815H73.255C74.1571 55.8492 75.0108 56.2315 75.637 56.8818C76.2631 57.5321 76.6129 58.3998 76.6129 59.3025C76.6129 60.2052 76.2631 61.0729 75.637 61.7232C75.0108 62.3735 74.1571 62.7558 73.255 62.79H45.35C44.4244 62.79 43.5367 62.4223 42.8822 61.7678C42.2277 61.1133 41.86 60.2256 41.86 59.3V31.4C41.86 29.47 43.42 27.905 45.35 27.905Z" fill="#134478"/>
</g>
<defs>
<clipPath id="clip0_82_564">
<rect width="100" height="100" fill="white"/>
</clipPath>
</defs>
</svg>
