<svg width="100" height="100" viewBox="0 0 100 100" fill="none" xmlns="http://www.w3.org/2000/svg">
<path d="M90.625 78.125H84.375V71.875H87.5V59.375H75V62.5H68.75V56.25C68.75 55.4212 69.0792 54.6263 69.6653 54.0403C70.2513 53.4542 71.0462 53.125 71.875 53.125H90.625C91.4538 53.125 92.2487 53.4542 92.8347 54.0403C93.4208 54.6263 93.75 55.4212 93.75 56.25V75C93.75 75.8288 93.4208 76.6237 92.8347 77.2097C92.2487 77.7958 91.4538 78.125 90.625 78.125Z" fill="#0084DC"/>
<path d="M75 93.75H56.25C55.4212 93.75 54.6263 93.4207 54.0403 92.8347C53.4542 92.2486 53.125 91.4538 53.125 90.625V71.875C53.125 71.0462 53.4542 70.2513 54.0403 69.6653C54.6263 69.0792 55.4212 68.75 56.25 68.75H75C75.8288 68.75 76.6237 69.0792 77.2097 69.6653C77.7958 70.2513 78.125 71.0462 78.125 71.875V90.625C78.125 91.4538 77.7958 92.2486 77.2097 92.8347C76.6237 93.4207 75.8288 93.75 75 93.75ZM59.375 87.5H71.875V75H59.375V87.5ZM46.875 62.0562C44.617 61.4677 42.5693 60.2579 40.9643 58.5642C39.3593 56.8704 38.2614 54.7605 37.7953 52.4741C37.3291 50.1877 37.5134 47.8165 38.3272 45.6296C39.141 43.4426 40.5517 41.5277 42.3991 40.1023C44.2465 38.6768 46.4566 37.7979 48.7784 37.5654C51.1002 37.3329 53.4407 37.756 55.5341 38.7868C57.6275 39.8176 59.3899 41.4147 60.6213 43.3968C61.8526 45.3789 62.5035 47.6666 62.5 50H68.75C68.7536 46.4244 67.7348 42.9223 65.8136 39.9066C63.8924 36.891 61.149 34.4875 57.9069 32.9797C54.6648 31.4719 51.0591 30.9225 47.515 31.3964C43.971 31.8703 40.6363 33.3476 37.9042 35.6543C35.1721 37.961 33.1565 41.0007 32.0951 44.4152C31.0337 47.8296 30.9708 51.4764 31.9137 54.9254C32.8566 58.3745 34.766 61.482 37.4169 63.8816C40.0677 66.2812 43.3494 67.8728 46.875 68.4687V62.0562Z" fill="#0084DC"/>
<path d="M90.2812 42.3438L83.0625 48.6875L78.625 44.25L86.1562 37.625L78.7812 24.875L68.0312 28.5C65.5131 26.404 62.661 24.7455 59.5937 23.5938L57.375 12.5H42.625L40.4062 23.5938C37.3144 24.7133 34.4467 26.3747 31.9375 28.5L21.2187 24.875L13.8437 37.625L22.3437 45.0938C21.7656 48.3285 21.7656 51.6402 22.3437 54.875L13.8437 62.375L21.2187 75.125L31.9687 71.5C34.4869 73.596 37.339 75.2545 40.4062 76.4062L42.625 87.5H46.875V93.75H42.625C41.1798 93.7488 39.7796 93.2469 38.6629 92.3295C37.5461 91.4122 36.7818 90.1362 36.5 88.7187L34.9062 80.8438C33.4914 80.1537 32.1239 79.3707 30.8125 78.5L23.2187 81.0625C22.573 81.2726 21.8978 81.3781 21.2187 81.375C20.121 81.3826 19.0412 81.0969 18.0908 80.5475C17.1403 79.9982 16.3538 79.205 15.8125 78.25L8.4375 65.5C7.70808 64.2469 7.43703 62.7792 7.67078 61.3482C7.90452 59.9173 8.62851 58.6121 9.71875 57.6563L15.7187 52.4062C15.6562 51.5938 15.625 50.8125 15.625 50C15.625 49.1875 15.6875 48.4062 15.75 47.625L9.71875 42.3438C8.62851 41.3879 7.90452 40.0827 7.67078 38.6518C7.43703 37.2208 7.70808 35.7531 8.4375 34.5L15.8125 21.75C16.3538 20.795 17.1403 20.0018 18.0908 19.4525C19.0412 18.9031 20.121 18.6174 21.2187 18.625C21.8978 18.6219 22.573 18.7274 23.2187 18.9375L30.7812 21.5C32.1033 20.6291 33.4813 19.8461 34.9062 19.1562L36.5 11.2812C36.7818 9.86379 37.5461 8.58779 38.6629 7.67046C39.7796 6.75313 41.1798 6.25116 42.625 6.25H57.375C58.8202 6.25116 60.2204 6.75313 61.3371 7.67046C62.4538 8.58779 63.2182 9.86379 63.5 11.2812L65.0937 19.1562C66.5086 19.8463 67.8761 20.6293 69.1875 21.5L76.7812 18.9375C77.427 18.7274 78.1022 18.6219 78.7812 18.625C79.879 18.6174 80.9588 18.9031 81.9092 19.4525C82.8597 20.0018 83.6462 20.795 84.1875 21.75L91.5625 34.5C92.2919 35.7531 92.563 37.2208 92.3292 38.6518C92.0955 40.0827 91.3715 41.3879 90.2812 42.3438Z" fill="#0084DC"/>
</svg>
