<svg width="115" height="115" viewBox="0 0 115 115" fill="none" xmlns="http://www.w3.org/2000/svg">
<path d="M0 28.75C0 24.9375 1.5145 21.2812 4.21034 18.5853C6.90618 15.8895 10.5625 14.375 14.375 14.375H100.625C104.437 14.375 108.094 15.8895 110.79 18.5853C113.485 21.2812 115 24.9375 115 28.75V86.25C115 90.0625 113.485 93.7188 110.79 96.4147C108.094 99.1105 104.437 100.625 100.625 100.625H14.375C10.5625 100.625 6.90618 99.1105 4.21034 96.4147C1.5145 93.7188 0 90.0625 0 86.25V28.75ZM14.375 21.5625C12.4688 21.5625 10.6406 22.3198 9.29267 23.6677C7.94475 25.0156 7.1875 26.8438 7.1875 28.75V35.9375H107.812V28.75C107.812 26.8438 107.055 25.0156 105.707 23.6677C104.359 22.3198 102.531 21.5625 100.625 21.5625H14.375ZM107.812 50.3125H7.1875V86.25C7.1875 88.1562 7.94475 89.9844 9.29267 91.3323C10.6406 92.6802 12.4688 93.4375 14.375 93.4375H100.625C102.531 93.4375 104.359 92.6802 105.707 91.3323C107.055 89.9844 107.812 88.1562 107.812 86.25V50.3125Z" fill="white"/>
<path d="M14.375 71.875C14.375 69.9688 15.1323 68.1406 16.4802 66.7927C17.8281 65.4448 19.6563 64.6875 21.5625 64.6875H28.75C30.6562 64.6875 32.4844 65.4448 33.8323 66.7927C35.1802 68.1406 35.9375 69.9688 35.9375 71.875V79.0625C35.9375 80.9687 35.1802 82.7969 33.8323 84.1448C32.4844 85.4927 30.6562 86.25 28.75 86.25H21.5625C19.6563 86.25 17.8281 85.4927 16.4802 84.1448C15.1323 82.7969 14.375 80.9687 14.375 79.0625V71.875Z" fill="white"/>
</svg>
