<svg width="100" height="100" viewBox="0 0 100 100" fill="none" xmlns="http://www.w3.org/2000/svg">
<path d="M78.125 31.25H77.9375C77.1423 24.3982 73.8569 18.0775 68.706 13.4898C63.5551 8.90205 56.8978 6.36719 50 6.36719C43.1022 6.36719 36.4449 8.90205 31.294 13.4898C26.1431 18.0775 22.8577 24.3982 22.0625 31.25H21.875C17.731 31.25 13.7567 32.8962 10.8265 35.8265C7.8962 38.7567 6.25 42.731 6.25 46.875C6.25 51.019 7.8962 54.9933 10.8265 57.9236C13.7567 60.8538 17.731 62.5 21.875 62.5H28.125V34.375C28.125 28.5734 30.4297 23.0094 34.532 18.907C38.6344 14.8047 44.1984 12.5 50 12.5C55.8016 12.5 61.3656 14.8047 65.468 18.907C69.5703 23.0094 71.875 28.5734 71.875 34.375V65.625C71.8729 68.4882 70.8879 71.2639 69.0848 73.4879C67.2816 75.712 64.7696 77.2496 61.9688 77.8438C61.1345 74.918 59.262 72.397 56.702 70.7531C54.142 69.1092 51.0704 68.4554 48.0629 68.9142C45.0553 69.373 42.3183 70.9128 40.3649 73.2452C38.4115 75.5775 37.3757 78.5423 37.4517 81.5836C37.5278 84.625 38.7104 87.5343 40.7779 89.7661C42.8455 91.9979 45.656 93.3991 48.6827 93.707C51.7094 94.015 54.7445 93.2085 57.2191 91.4387C59.6938 89.669 61.438 87.0575 62.125 84.0938C66.5594 83.4363 70.6114 81.2119 73.5467 77.8237C76.482 74.4355 78.1062 70.1078 78.125 65.625V62.5C82.269 62.5 86.2433 60.8538 89.1735 57.9236C92.1038 54.9933 93.75 51.019 93.75 46.875C93.75 42.731 92.1038 38.7567 89.1735 35.8265C86.2433 32.8962 82.269 31.25 78.125 31.25ZM12.5 46.875C12.5 44.3886 13.4877 42.004 15.2459 40.2459C17.004 38.4877 19.3886 37.5 21.875 37.5V56.25C19.3886 56.25 17.004 55.2623 15.2459 53.5041C13.4877 51.746 12.5 49.3614 12.5 46.875ZM50 87.5C48.7639 87.5 47.5555 87.1335 46.5277 86.4467C45.4999 85.7599 44.6988 84.7838 44.2258 83.6418C43.7527 82.4997 43.6289 81.2431 43.8701 80.0307C44.1112 78.8183 44.7065 77.7047 45.5806 76.8306C46.4547 75.9565 47.5683 75.3613 48.7807 75.1201C49.9931 74.8789 51.2497 75.0027 52.3918 75.4758C53.5338 75.9488 54.5099 76.7499 55.1967 77.7777C55.8834 78.8055 56.25 80.0139 56.25 81.25C56.25 82.9076 55.5915 84.4973 54.4194 85.6694C53.2473 86.8415 51.6576 87.5 50 87.5ZM78.125 56.25V37.5C80.6114 37.5 82.996 38.4877 84.7541 40.2459C86.5123 42.004 87.5 44.3886 87.5 46.875C87.5 49.3614 86.5123 51.746 84.7541 53.5041C82.996 55.2623 80.6114 56.25 78.125 56.25Z" fill="#0084DC"/>
</svg>
