<svg width="50" height="50" viewBox="0 0 50 50" fill="none" xmlns="http://www.w3.org/2000/svg">
<path d="M36.4583 6.25C32.4375 6.25 29.1667 9.52083 29.1667 13.5417V16.6667H20.8333V13.5417C20.8333 9.52083 17.5625 6.25 13.5417 6.25C9.52083 6.25 6.25 9.52083 6.25 13.5417C6.25 17.5625 9.52083 20.8333 13.5417 20.8333H16.6667V29.1667H13.5417C9.52083 29.1667 6.25 32.4375 6.25 36.4583C6.25 40.4792 9.52083 43.75 13.5417 43.75C17.5625 43.75 20.8333 40.4792 20.8333 36.4583V33.3333H29.1667V36.4583C29.1667 40.4792 32.4375 43.75 36.4583 43.75C40.4792 43.75 43.75 40.4792 43.75 36.4583C43.75 32.4375 40.4792 29.1667 36.4583 29.1667H33.3333V20.8333H36.4583C40.4792 20.8333 43.75 17.5625 43.75 13.5417C43.75 9.52083 40.4792 6.25 36.4583 6.25ZM33.3333 16.6667V13.5417C33.3333 11.8125 34.7292 10.4167 36.4583 10.4167C38.1875 10.4167 39.5833 11.8125 39.5833 13.5417C39.5833 15.2708 38.1875 16.6667 36.4583 16.6667H33.3333ZM13.5417 16.6667C11.8125 16.6667 10.4167 15.2708 10.4167 13.5417C10.4167 11.8125 11.8125 10.4167 13.5417 10.4167C15.2708 10.4167 16.6667 11.8125 16.6667 13.5417V16.6667H13.5417ZM20.8333 29.1667V20.8333H29.1667V29.1667H20.8333ZM36.4583 39.5833C34.7292 39.5833 33.3333 38.1875 33.3333 36.4583V33.3333H36.4583C38.1875 33.3333 39.5833 34.7292 39.5833 36.4583C39.5833 38.1875 38.1875 39.5833 36.4583 39.5833ZM13.5417 39.5833C11.8125 39.5833 10.4167 38.1875 10.4167 36.4583C10.4167 34.7292 11.8125 33.3333 13.5417 33.3333H16.6667V36.4583C16.6667 38.1875 15.2708 39.5833 13.5417 39.5833Z" fill="white"/>
</svg>
