<svg width="100" height="100" viewBox="0 0 100 100" fill="none" xmlns="http://www.w3.org/2000/svg">
<g clip-path="url(#clip0_16_57)">
<path d="M57.8613 57.5684C54.9967 55.127 51.8229 53.2552 48.3398 51.9531C44.8568 50.651 41.2435 50 37.5 50C34.6354 50 31.8685 50.3743 29.1992 51.123C26.5299 51.8717 24.0397 52.9134 21.7285 54.248C19.4173 55.5827 17.3177 57.2103 15.4297 59.1309C13.5417 61.0514 11.9141 63.1673 10.5469 65.4785C9.17969 67.7897 8.12175 70.2799 7.37305 72.9492C6.62435 75.6185 6.25 78.3854 6.25 81.25H0C0 77.3438 0.569661 73.584 1.70898 69.9707C2.84831 66.3574 4.49219 63.0208 6.64062 59.9609C8.78906 56.901 11.3281 54.1829 14.2578 51.8066C17.1875 49.4303 20.5078 47.5586 24.2188 46.1914C20.5404 43.7826 17.6758 40.7552 15.625 37.1094C13.5742 33.4635 12.5326 29.4271 12.5 25C12.5 21.5495 13.151 18.3105 14.4531 15.2832C15.7552 12.2559 17.5293 9.60286 19.7754 7.32422C22.0215 5.04557 24.6745 3.25521 27.7344 1.95312C30.7943 0.651042 34.0495 0 37.5 0C40.9505 0 44.1895 0.651042 47.2168 1.95312C50.2441 3.25521 52.8971 5.0293 55.1758 7.27539C57.4544 9.52148 59.2448 12.1745 60.5469 15.2344C61.849 18.2943 62.5 21.5495 62.5 25C62.5 27.1484 62.2396 29.248 61.7188 31.2988C61.1979 33.3496 60.4167 35.2865 59.375 37.1094C58.3333 38.9323 57.1126 40.6087 55.7129 42.1387C54.3132 43.6686 52.6693 45.0195 50.7812 46.1914C52.8971 47.0052 54.9154 47.998 56.8359 49.1699C58.7565 50.3418 60.5632 51.6602 62.2559 53.125L57.8613 57.5684ZM18.75 25C18.75 27.6042 19.2383 30.0293 20.2148 32.2754C21.1914 34.5215 22.526 36.5072 24.2188 38.2324C25.9115 39.9577 27.8971 41.3086 30.1758 42.2852C32.4544 43.2617 34.8958 43.75 37.5 43.75C40.0716 43.75 42.4967 43.2617 44.7754 42.2852C47.054 41.3086 49.0397 39.974 50.7324 38.2812C52.4251 36.5885 53.776 34.6029 54.7852 32.3242C55.7943 30.0456 56.2826 27.6042 56.25 25C56.25 22.4284 55.7617 20.0033 54.7852 17.7246C53.8086 15.446 52.474 13.4603 50.7812 11.7676C49.0885 10.0749 47.0866 8.72396 44.7754 7.71484C42.4642 6.70573 40.0391 6.21745 37.5 6.25C34.8958 6.25 32.4707 6.73828 30.2246 7.71484C27.9785 8.69141 25.9928 10.026 24.2676 11.7188C22.5423 13.4115 21.1914 15.4134 20.2148 17.7246C19.2383 20.0358 18.75 22.4609 18.75 25ZM84.375 37.5C86.5234 37.5 88.5417 37.9069 90.4297 38.7207C92.3177 39.5345 93.9616 40.6576 95.3613 42.0898C96.7611 43.5221 97.8841 45.1823 98.7305 47.0703C99.5768 48.9583 100 50.9766 100 53.125C100 55.2734 99.5931 57.2917 98.7793 59.1797C97.9655 61.0677 96.8424 62.7279 95.4102 64.1602C93.9779 65.5924 92.3177 66.7155 90.4297 67.5293C88.5417 68.3431 86.5234 68.75 84.375 68.75C83.6263 68.75 82.8939 68.7012 82.1777 68.6035L53.5156 97.2656C52.6367 98.1445 51.6276 98.8119 50.4883 99.2676C49.349 99.7233 48.1445 99.9674 46.875 100C45.5729 100 44.3522 99.7559 43.2129 99.2676C42.0736 98.7793 41.0807 98.112 40.2344 97.2656C39.388 96.4193 38.7207 95.4264 38.2324 94.2871C37.7441 93.1478 37.5 91.9271 37.5 90.625C37.5 89.388 37.7279 88.1999 38.1836 87.0605C38.6393 85.9212 39.3229 84.8958 40.2344 83.9844L68.8965 55.3223C68.7988 54.6061 68.75 53.8737 68.75 53.125C68.75 50.9766 69.1569 48.9583 69.9707 47.0703C70.7845 45.1823 71.8913 43.5384 73.291 42.1387C74.6908 40.7389 76.3509 39.6159 78.2715 38.7695C80.1921 37.9232 82.2266 37.5 84.375 37.5ZM84.375 62.5C85.6771 62.5 86.8978 62.2559 88.0371 61.7676C89.1764 61.2793 90.1693 60.612 91.0156 59.7656C91.862 58.9193 92.5293 57.9264 93.0176 56.7871C93.5059 55.6478 93.75 54.4271 93.75 53.125C93.75 51.7904 93.4408 50.4557 92.8223 49.1211L85.6934 56.25H81.25V51.8066L88.3789 44.6777C87.0443 44.0592 85.7096 43.75 84.375 43.75C83.0729 43.75 81.8522 43.9941 80.7129 44.4824C79.5736 44.9707 78.5807 45.638 77.7344 46.4844C76.888 47.3307 76.2207 48.3236 75.7324 49.4629C75.2441 50.6022 75 51.8229 75 53.125C75 54.4596 75.3092 55.7943 75.9277 57.1289L44.6777 88.4277C44.0592 89.0462 43.75 89.7786 43.75 90.625C43.75 91.4714 44.0592 92.2038 44.6777 92.8223C45.2962 93.4408 46.0286 93.75 46.875 93.75C47.7214 93.75 48.4538 93.4408 49.0723 92.8223L80.3711 61.5723C81.7057 62.1908 83.0404 62.5 84.375 62.5Z" fill="#0084DC"/>
</g>
<defs>
<clipPath id="clip0_16_57">
<rect width="100" height="100" fill="white"/>
</clipPath>
</defs>
</svg>
